Jennifer.Lopez.Hold.It.Do.not.Drop.It.HQ



General
Complete name : Jennifer Lopez - Hold It Don't Drop It.avi
Format : AVI
Format/Info : Audio Video Interleave
File size : 60.5 MiB
Duration : 3mn 50s
Overall bit rate : 2 201 Kbps

Video #0
Format : MPEG-4 Visual
Format profile : Simple@L3
Format settings, BVOP : Yes
Format settings, QPel : No
Format settings, GMC : No warppoints
Format settings, Matrix : Default (H.263)
Codec ID : XVID
Codec ID/Hint : XviD
Duration : 3mn 50s
Bit rate : 1 997 Kbps
Width : 720 pixels
Height : 304 pixels
Display aspect ratio : 2.35:1
Frame rate : 25.000 fps
Resolution : 24 bits
Scan type : Progressive
Bits/(Pixel*Frame) : 0.365
Stream size : 54.9 MiB (91%)

Audio #1
Format : MPEG Audio
Format version : Version 1
Format profile : Layer 3
Codec ID : 55
Codec ID/Hint : MP3
Duration : 3mn 50s
Bit rate mode : Constant
Bit rate : 192 Kbps
Channel(s) : 2 channels
Sampling rate : 44.1 KHz
Resolution : 16 bits
Stream size : 5.27 MiB (9%)
Alignment : Aligned on interleaves
Interleave, duration : 26 ms (0.65 video frame)
Writing library : LAME3.97